<svg xmlns="http://www.w3.org/2000/svg" viewBox="0 0 32 32" fill="none">
  <defs>
    <linearGradient id="tile" x1="0" y1="0" x2="32" y2="32" gradientUnits="userSpaceOnUse">
      <stop stop-color="#8B5CF6" stop-opacity="0.25"/>
      <stop offset="1" stop-color="#6D28D9" stop-opacity="0.1"/>
    </linearGradient>
  </defs>
  <rect width="32" height="32" rx="12" fill="url(#tile)" stroke="#8B5CF6" stroke-opacity="0.2"/>
  <svg x="8" y="8" width="16" height="16" viewBox="0 0 24 24" fill="none">
    <path
      d="M20 13c0 5-3.5 7.5-7.66 8.95a1 1 0 0 1-.67-.01C7.5 20.5 4 18 4 13V6a1 1 0 0 1 1-1c2 0 4.5-1.2 6.24-2.72a1.17 1.17 0 0 1 1.52 0C14.51 3.81 17 5 19 5a1 1 0 0 1 1 1z"
      stroke="#C4B5FD"
      stroke-width="2"
      stroke-linecap="round"
      stroke-linejoin="round"
    />
  </svg>
</svg>
